{"title":"Dressed to Kill(1980)MP-4[DaScubaDude]","uid":12488067,"size":1284328131,"categoryP":"video","categoryS":"movies","magnet":"?xt=urn:btih:5dbe4c2c83c913691e2f2062aa245232161ff6f0&amp;dn=Dressed+to+Kill%281980%29MP-4%5BDaScubaDude%5D&amp;tr=udp%3A%2F%2Ftracker.leechers-paradise.org%3A6969&amp;tr=udp%3A%2F%2Fzer0day.ch%3A1337&amp;tr=udp%3A%2F%2Fopen.demonii.com%3A1337&amp;tr=udp%3A%2F%2Ftracker.coppersurfer.tk%3A6969&amp;tr=udp%3A%2F%2Fexodus.desync.com%3A6969","seeders":0,"leechers":1,"uploader":"dascuba","files":1,"time":1443127979,"description":"Dressed to Kill (1980)\r\nX  |  105 min  |  Drama, Mystery, Thriller  |  25 July 1980 (USA)\r\n7.1 Your rating:   -/10   Ratings: 7.1/10 from 21,807 users   \r\nReviews: 188 user | 104 critic\r\nA mysterious blonde woman kills one of a psychiatrist's patients, and then goes after the high-class call girl who witnessed the murder.\r\n\r\nDirector: Brian De Palma\r\nWriter: Brian De Palma\r\nStars: Michael Caine, Angie Dickinson, Nancy Allen\r\n\r\nGeneral\r\nComplete name                            : C:Dressed to KillDRESS2K_Title2.mp4\r\nFormat                                   : MPEG-4\r\nFormat profile                           : Base Media\r\nCodec ID                                 : isom\r\nFile size                                : 1.20 GiB\r\nDuration                                 : 1h 44mn\r\nOverall bit rate mode                    : Constant\r\nOverall bit rate                         : 1 633 Kbps\r\nMovie name                               : DRESS2K\r\nGenre                                    : Thriller\r\nWriting application                      : Lavf54.6.100\r\n\r\nVideo\r\nID                                       : 1\r\nFormat                                   : MPEG-4 Visual\r\nFormat settings, BVOP                    : No\r\nFormat settings, QPel                    : No\r\nFormat settings, GMC                     : No warppoints\r\nFormat settings, Matrix                  : Default (H.263)\r\nCodec ID                                 : 20\r\nDuration                                 : 1h 44mn\r\nBit rate mode                            : Constant\r\nBit rate                                 : 1 499 Kbps\r\nWidth                                    : 720 pixels\r\nHeight                                   : 404 pixels\r\nDisplay aspect ratio                     : 16:9\r\nFrame rate mode                          : Constant\r\nFrame rate                               : 29.970 fps\r\nColor space                              : YUV\r\nChroma subsampling                       : 4:2:0\r\nBit depth                                : 8 bits\r\nScan type                                : Progressive\r\nCompression mode                         : Lossy\r\nBits/(Pixel*Frame)                       : 0.172\r\nStream size                              : 1.10 GiB (92%)\r\nWriting library                          : Lavc54.23.100\r\n\r\nAudio\r\nID                                       : 2\r\nFormat                                   : MPEG Audio\r\nFormat version                           : Version 1\r\nFormat profile                           : Layer 3\r\nCodec ID                                 : 6B\r\nDuration                                 : 1h 44mn\r\nBit rate mode                            : Constant\r\nBit rate                                 : 128 Kbps\r\nChannel(s)                               : 2 channels\r\nSampling rate                            : 44.1 KHz\r\nCompression mode                         : Lossy\r\nStream size                              : 96.0 MiB (8%)\r\nWriting library                          : LAME3.99.5","torrent":{"xt":"urn:btih:5dbe4c2c83c913691e2f2062aa245232161ff6f0","amp;dn":"Dressed+to+Kill%281980%29MP-4%5BDaScubaDude%5D","amp;tr":["udp%3A%2F%2Ftracker.leechers-paradise.org%3A6969","udp%3A%2F%2Fzer0day.ch%3A1337","udp%3A%2F%2Fopen.demonii.com%3A1337","udp%3A%2F%2Ftracker.coppersurfer.tk%3A6969","udp%3A%2F%2Fexodus.desync.com%3A6969"],"infoHash":"5dbe4c2c83c913691e2f2062aa245232161ff6f0","infoHashBuffer":{"type":"Buffer","data":[93,190,76,44,131,201,19,105,30,47,32,98,170,36,82,50,22,31,246,240]},"announce":[],"urlList":[]}}